<?xml version="1.0" standalone="no"?>
<!DOCTYPE svg PUBLIC "-//W3C//DTD SVG 20010904//EN"
 "http://www.w3.org/TR/2001/REC-SVG-20010904/DTD/svg10.dtd">
<svg version="1.0" xmlns="http://www.w3.org/2000/svg"
 width="512.000000pt" height="512.000000pt" viewBox="0 0 512.000000 512.000000"
 preserveAspectRatio="xMidYMid meet">
<metadata>
Created by potrace 1.14, written by Peter Selinger 2001-2017
</metadata>
<g transform="translate(0.000000,512.000000) scale(0.100000,-0.100000)"
fill="#000000" stroke="none">
<path d="M897 4144 c-1 -1 -20 -4 -42 -8 -130 -18 -204 -74 -257 -193 -26 -58
-35 -197 -19 -272 24 -114 68 -179 226 -336 93 -93 123 -129 133 -161 13 -45
15 -84 6 -108 -7 -18 -49 -22 -59 -6 -3 5 -6 51 -6 102 l0 93 -122 -2 c-67 -1
-138 -2 -159 -2 l-36 -1 4 -112 c4 -130 3 -125 29 -197 27 -72 83 -134 152
-167 47 -22 74 -27 156 -30 87 -3 107 0 162 22 89 36 169 123 191 209 34 129
18 282 -42 390 -15 28 -84 107 -157 180 -134 134 -169 186 -163 240 2 17 4 36
5 42 1 13 35 12 48 -1 5 -4 8 -44 8 -89 l1 -82 149 -5 148 -5 2 -30 c1 -16 6
-61 10 -100 14 -136 15 -150 21 -205 3 -30 7 -75 9 -100 4 -42 8 -79 20 -192
3 -27 7 -70 10 -98 10 -96 17 -155 20 -160 4 -6 363 -5 369 1 3 2 7 31 10 64
3 33 9 83 13 110 3 28 6 57 4 67 -1 9 2 19 6 21 5 3 9 -2 9 -11 3 -52 18 -197
23 -224 l7 -32 173 -1 c95 0 175 3 178 8 7 11 11 43 18 132 3 44 8 94 11 110
2 17 6 50 8 75 14 157 23 245 26 245 1 0 3 16 4 35 3 46 18 209 22 235 1 11 3
33 3 49 1 16 4 26 7 23 4 -4 6 -203 6 -444 -1 -241 1 -445 3 -453 4 -13 63
-15 462 -14 252 1 463 2 469 3 7 1 10 18 8 46 -4 45 10 66 14 23 4 -41 8 -57
15 -65 4 -4 66 -7 138 -8 122 0 130 1 134 20 2 11 8 38 14 60 9 39 9 39 7 -17
-1 -41 2 -58 11 -59 7 -1 76 -2 154 -3 117 -1 142 2 148 14 4 8 6 77 5 153 -1
76 1 135 4 132 3 -3 6 -13 7 -23 12 -111 91 -219 193 -264 64 -28 224 -31 298
-5 63 22 126 74 160 133 52 88 53 106 54 689 l0 541 -155 0 c-133 0 -155 -2
-159 -15 -2 -9 -4 -246 -4 -528 0 -281 -3 -516 -6 -522 -10 -15 -56 -14 -58 2
0 6 -2 239 -3 517 -2 278 -3 514 -4 526 -1 20 -5 20 -365 20 l-363 0 -12 -80
c-7 -45 -14 -99 -17 -121 -2 -22 -6 -51 -9 -65 -3 -14 -8 -47 -11 -75 -4 -27
-8 -59 -9 -70 -2 -11 -4 -29 -4 -39 -3 -61 -21 31 -46 229 -7 55 -10 76 -21
150 -5 28 -7 53 -6 58 1 4 -1 8 -5 9 -35 6 -1295 2 -1300 -5 -3 -5 -7 -23 -8
-40 -9 -99 -18 -214 -19 -229 0 -10 -4 -18 -8 -18 -4 0 -7 10 -7 23 1 12 -1
42 -4 67 -4 25 -9 79 -12 120 -3 41 -9 77 -11 80 -3 3 -77 5 -165 6 -182 0
-165 12 -175 -116 -4 -47 -8 -92 -10 -100 -1 -8 -3 -33 -3 -54 -2 -77 -12 -28
-27 129 -4 39 -7 86 -8 105 l-2 35 -155 1 c-85 0 -156 -3 -160 -8 -3 -4 -2
-33 1 -64 l6 -56 -34 42 c-38 46 -110 86 -169 95 -44 7 -112 12 -116 9z m2930
-71 c-3 -10 -5 -4 -5 12 0 17 2 24 5 18 2 -7 2 -21 0 -30z m0 -55 c-3 -7 -5
-2 -5 12 0 14 2 19 5 13 2 -7 2 -19 0 -25z m0 -40 c-3 -8 -6 -5 -6 6 -1 11 2
17 5 13 3 -3 4 -12 1 -19z m0 -80 c-3 -7 -5 -2 -5 12 0 14 2 19 5 13 2 -7 2
-19 0 -25z m0 -40 c-3 -8 -6 -5 -6 6 -1 11 2 17 5 13 3 -3 4 -12 1 -19z m-942
-403 c1 -198 -2 -367 -6 -375 -6 -13 -31 -15 -151 -14 -79 1 -147 2 -153 3 -8
1 -12 144 -6 231 1 13 22 15 131 15 83 -1 130 3 131 10 1 5 2 74 3 152 1 119
-1 143 -14 145 -8 2 -68 3 -132 3 -77 -1 -118 2 -119 9 -4 35 -4 163 -1 174 3
10 41 12 160 10 l157 -3 0 -360z m942 323 c-3 -7 -5 -2 -5 12 0 14 2 19 5 13
2 -7 2 -19 0 -25z m0 -40 c-3 -8 -6 -5 -6 6 -1 11 2 17 5 13 3 -3 4 -12 1 -19z
m0 -80 c-3 -7 -5 -2 -5 12 0 14 2 19 5 13 2 -7 2 -19 0 -25z m0 -40 c-3 -8 -6
-5 -6 6 -1 11 2 17 5 13 3 -3 4 -12 1 -19z m0 -80 c-3 -7 -5 -2 -5 12 0 14 2
19 5 13 2 -7 2 -19 0 -25z m0 -40 c-3 -8 -6 -5 -6 6 -1 11 2 17 5 13 3 -3 4
-12 1 -19z m0 -80 c-3 -7 -5 -2 -5 12 0 14 2 19 5 13 2 -7 2 -19 0 -25z m0
-40 c-3 -8 -6 -5 -6 6 -1 11 2 17 5 13 3 -3 4 -12 1 -19z m0 -80 c-3 -7 -5 -2
-5 12 0 14 2 19 5 13 2 -7 2 -19 0 -25z m0 -40 c-3 -8 -6 -5 -6 6 -1 11 2 17
5 13 3 -3 4 -12 1 -19z m0 -80 c-3 -7 -5 -2 -5 12 0 14 2 19 5 13 2 -7 2 -19
0 -25z m0 -40 c-3 -8 -6 -5 -6 6 -1 11 2 17 5 13 3 -3 4 -12 1 -19z m0 -60
c-3 -8 -6 -5 -6 6 -1 11 2 17 5 13 3 -3 4 -12 1 -19z m-640 -210 c-3 -8 -6 -5
-6 6 -1 11 2 17 5 13 3 -3 4 -12 1 -19z"/>
<path d="M1492 2468 c-142 -21 -247 -130 -270 -281 -9 -63 -8 -798 2 -847 35
-177 177 -280 369 -268 142 9 239 72 291 190 l22 50 -1 -98 c-1 -55 0 -106 2
-114 3 -13 30 -15 161 -15 l157 1 5 279 5 280 35 0 35 -1 2 -239 c1 -132 2
-258 2 -280 l1 -40 294 0 294 0 7 45 c9 66 17 113 20 130 2 8 4 27 4 43 1 26
3 27 55 27 30 0 57 -3 59 -7 3 -5 8 -35 12 -68 3 -33 10 -77 15 -97 4 -21 6
-38 4 -38 -3 0 0 -8 5 -17 8 -16 25 -18 153 -17 78 1 150 2 159 3 14 1 14 9 3
74 -7 39 -15 88 -17 107 -3 19 -6 35 -7 35 -1 0 -3 11 -5 25 -12 102 -16 127
-20 140 -2 8 -6 31 -9 50 -3 19 -17 105 -31 190 -14 85 -28 169 -31 185 -2 17
-6 41 -9 55 -2 14 -7 42 -10 63 -3 20 -8 54 -11 75 -3 20 -7 42 -7 47 -1 6 38
11 96 13 l97 3 0 -533 0 -533 157 2 c87 0 160 2 163 2 3 1 5 239 4 531 l0 529
105 3 c88 3 105 6 102 18 -2 8 -3 53 -2 100 1 47 1 90 1 95 0 6 -1 28 -2 50
l-3 40 -355 1 c-195 0 -360 -1 -366 -3 -7 -2 -10 -37 -9 -93 3 -134 -15 -111
-32 40 -3 25 -7 47 -10 50 -2 2 -87 5 -188 5 l-184 1 -10 -51 c-5 -27 -15 -84
-21 -125 -6 -41 -14 -86 -16 -100 -2 -14 -11 -65 -19 -115 -18 -110 -23 -140
-25 -140 0 0 -3 -18 -5 -40 -2 -22 -7 -51 -10 -65 -3 -14 -8 -43 -10 -65 -9
-70 -53 -316 -57 -320 -2 -3 -4 226 -4 508 l0 512 -162 1 -162 0 0 -25 c-1
-14 -1 -128 -2 -252 l0 -226 -39 0 -39 0 -2 251 -3 251 -150 1 c-82 0 -155 -1
-161 -3 -6 -2 -10 -41 -9 -103 1 -55 0 -100 -1 -100 -2 0 -13 21 -26 46 -67
135 -210 198 -386 172z m106 -315 c4 -10 8 -69 7 -130 l0 -113 75 -1 c41 0
109 -1 150 -2 l75 -2 0 -112 1 -113 -51 -1 c-27 0 -95 0 -150 0 l-100 0 0
-137 c1 -75 -1 -143 -3 -149 -5 -15 -48 -17 -57 -4 -3 6 -6 177 -6 381 0 377
2 400 37 400 7 0 17 -8 22 -17z m1397 -473 c3 -5 1 -10 -4 -10 -6 0 -11 5 -11
10 0 6 2 10 4 10 3 0 8 -4 11 -10z m5 -35 c0 -8 -4 -15 -10 -15 -5 0 -10 7
-10 15 0 8 5 15 10 15 6 0 10 -7 10 -15z"/>
</g>
</svg>
